<mxfile host="app.diagrams.net" modified="2024-04-19T07:26:29.074Z" agent="Mozilla/5.0 (X11; Linux x86_64) AppleWebKit/537.36 (KHTML, like Gecko) Chrome/124.0.0.0 Safari/537.36" etag="k9B2YRc3crlZ3ySZHaNF" version="24.2.5" type="device">
  <diagram name="Page-1" id="2YBvvXClWsGukQMizWep">
    <mxGraphModel dx="1433" dy="1885" grid="1" gridSize="10" guides="1" tooltips="1" connect="1" arrows="1" fold="1" page="1" pageScale="1" pageWidth="850" pageHeight="1100" math="0" shadow="0">
      <root>
        <mxCell id="0" />
        <mxCell id="1" parent="0" />
        <mxCell id="HNsuzrvbaMhc-dj44Uxk-2" value="" style="rounded=0;whiteSpace=wrap;html=1;" parent="1" vertex="1">
          <mxGeometry x="54.5" y="-402" width="720" height="337" as="geometry" />
        </mxCell>
        <mxCell id="HNsuzrvbaMhc-dj44Uxk-3" value="" style="endArrow=classic;html=1;rounded=0;" parent="1" edge="1">
          <mxGeometry width="50" height="50" relative="1" as="geometry">
            <mxPoint x="131.25" y="-352" as="sourcePoint" />
            <mxPoint x="406.75" y="-352" as="targetPoint" />
          </mxGeometry>
        </mxCell>
        <mxCell id="HNsuzrvbaMhc-dj44Uxk-4" value="&lt;span style=&quot;font-size: 13px;&quot;&gt;demande de la modification d&#39;un utilisateur&lt;/span&gt;" style="edgeLabel;html=1;align=center;verticalAlign=middle;resizable=0;points=[];" parent="HNsuzrvbaMhc-dj44Uxk-3" vertex="1" connectable="0">
          <mxGeometry x="-0.103" y="3" relative="1" as="geometry">
            <mxPoint x="15" y="-27" as="offset" />
          </mxGeometry>
        </mxCell>
        <mxCell id="HNsuzrvbaMhc-dj44Uxk-5" value="&lt;span style=&quot;font-size: 13px;&quot;&gt;mise à jour&lt;/span&gt;" style="edgeLabel;html=1;align=center;verticalAlign=middle;resizable=0;points=[];" parent="HNsuzrvbaMhc-dj44Uxk-3" vertex="1" connectable="0">
          <mxGeometry x="-0.103" y="3" relative="1" as="geometry">
            <mxPoint x="302" y="3" as="offset" />
          </mxGeometry>
        </mxCell>
        <mxCell id="HNsuzrvbaMhc-dj44Uxk-6" value="&lt;span style=&quot;font-size: 13px;&quot;&gt;mise à jour effectuée&lt;/span&gt;" style="edgeLabel;html=1;align=center;verticalAlign=middle;resizable=0;points=[];" parent="HNsuzrvbaMhc-dj44Uxk-3" vertex="1" connectable="0">
          <mxGeometry x="-0.103" y="3" relative="1" as="geometry">
            <mxPoint x="296" y="49" as="offset" />
          </mxGeometry>
        </mxCell>
        <mxCell id="HNsuzrvbaMhc-dj44Uxk-7" value="&lt;span style=&quot;font-size: 13px;&quot;&gt;message d&#39;erreur&lt;/span&gt;" style="edgeLabel;html=1;align=center;verticalAlign=middle;resizable=0;points=[];" parent="HNsuzrvbaMhc-dj44Uxk-3" vertex="1" connectable="0">
          <mxGeometry x="-0.103" y="3" relative="1" as="geometry">
            <mxPoint x="-5" y="223" as="offset" />
          </mxGeometry>
        </mxCell>
        <mxCell id="HNsuzrvbaMhc-dj44Uxk-8" value="" style="endArrow=classic;html=1;rounded=0;" parent="1" edge="1">
          <mxGeometry width="50" height="50" relative="1" as="geometry">
            <mxPoint x="425" y="-332" as="sourcePoint" />
            <mxPoint x="680" y="-332" as="targetPoint" />
            <Array as="points">
              <mxPoint x="510" y="-332" />
            </Array>
          </mxGeometry>
        </mxCell>
        <mxCell id="HNsuzrvbaMhc-dj44Uxk-9" value="" style="endArrow=none;dashed=1;html=1;rounded=0;startArrow=classic;startFill=1;" parent="1" edge="1">
          <mxGeometry width="50" height="50" relative="1" as="geometry">
            <mxPoint x="425" y="-282" as="sourcePoint" />
            <mxPoint x="675" y="-282" as="targetPoint" />
          </mxGeometry>
        </mxCell>
        <mxCell id="HNsuzrvbaMhc-dj44Uxk-10" value="" style="endArrow=classic;html=1;rounded=0;" parent="1" edge="1">
          <mxGeometry width="50" height="50" relative="1" as="geometry">
            <mxPoint x="131.25" y="-202" as="sourcePoint" />
            <mxPoint x="406.75" y="-202" as="targetPoint" />
          </mxGeometry>
        </mxCell>
        <mxCell id="HNsuzrvbaMhc-dj44Uxk-11" value="&lt;span style=&quot;font-size: 13px;&quot;&gt;demande de la modification d&#39;un utilisateur&lt;/span&gt;" style="edgeLabel;html=1;align=center;verticalAlign=middle;resizable=0;points=[];" parent="HNsuzrvbaMhc-dj44Uxk-10" vertex="1" connectable="0">
          <mxGeometry x="-0.103" y="3" relative="1" as="geometry">
            <mxPoint x="5" y="-17" as="offset" />
          </mxGeometry>
        </mxCell>
        <mxCell id="HNsuzrvbaMhc-dj44Uxk-12" value="&lt;span style=&quot;font-size: 13px;&quot;&gt;mise à jour&lt;/span&gt;" style="edgeLabel;html=1;align=center;verticalAlign=middle;resizable=0;points=[];" parent="HNsuzrvbaMhc-dj44Uxk-10" vertex="1" connectable="0">
          <mxGeometry x="-0.103" y="3" relative="1" as="geometry">
            <mxPoint x="302" y="3" as="offset" />
          </mxGeometry>
        </mxCell>
        <mxCell id="HNsuzrvbaMhc-dj44Uxk-13" value="&lt;span style=&quot;font-size: 13px;&quot;&gt;echec de la mise à jour&lt;/span&gt;" style="edgeLabel;html=1;align=center;verticalAlign=middle;resizable=0;points=[];" parent="HNsuzrvbaMhc-dj44Uxk-10" vertex="1" connectable="0">
          <mxGeometry x="-0.103" y="3" relative="1" as="geometry">
            <mxPoint x="296" y="49" as="offset" />
          </mxGeometry>
        </mxCell>
        <mxCell id="HNsuzrvbaMhc-dj44Uxk-14" value="" style="endArrow=none;dashed=1;html=1;rounded=0;entryX=1.004;entryY=0.611;entryDx=0;entryDy=0;entryPerimeter=0;" parent="1" edge="1">
          <mxGeometry width="50" height="50" relative="1" as="geometry">
            <mxPoint x="54.5" y="-250.90999999999997" as="sourcePoint" />
            <mxPoint x="777.3800000000001" y="-252.00300000000004" as="targetPoint" />
          </mxGeometry>
        </mxCell>
        <mxCell id="HNsuzrvbaMhc-dj44Uxk-15" value="&lt;font style=&quot;font-size: 15px;&quot;&gt;Diagramme de séquences admin: CRUD User&lt;/font&gt;" style="text;html=1;align=center;verticalAlign=middle;whiteSpace=wrap;rounded=0;" parent="1" vertex="1">
          <mxGeometry x="266.25" y="-1090" width="315.5" height="30" as="geometry" />
        </mxCell>
        <mxCell id="HNsuzrvbaMhc-dj44Uxk-16" value="" style="endArrow=classic;html=1;rounded=0;" parent="1" edge="1">
          <mxGeometry width="50" height="50" relative="1" as="geometry">
            <mxPoint x="425" y="-142" as="sourcePoint" />
            <mxPoint x="680" y="-142" as="targetPoint" />
          </mxGeometry>
        </mxCell>
        <mxCell id="HNsuzrvbaMhc-dj44Uxk-17" value="" style="endArrow=none;dashed=1;html=1;rounded=0;startArrow=classic;startFill=1;" parent="1" edge="1">
          <mxGeometry width="50" height="50" relative="1" as="geometry">
            <mxPoint x="131.25" y="-112" as="sourcePoint" />
            <mxPoint x="406.75" y="-112" as="targetPoint" />
          </mxGeometry>
        </mxCell>
        <mxCell id="HNsuzrvbaMhc-dj44Uxk-18" value="&lt;b&gt;else&lt;/b&gt;" style="text;html=1;align=center;verticalAlign=middle;whiteSpace=wrap;rounded=0;" parent="1" vertex="1">
          <mxGeometry x="54.5" y="-248.5" width="60" height="30" as="geometry" />
        </mxCell>
        <mxCell id="HNsuzrvbaMhc-dj44Uxk-19" value="&lt;b&gt;Alt&lt;/b&gt;" style="text;html=1;align=center;verticalAlign=middle;whiteSpace=wrap;rounded=0;" parent="1" vertex="1">
          <mxGeometry x="54.5" y="-402" width="60" height="30" as="geometry" />
        </mxCell>
        <mxCell id="HNsuzrvbaMhc-dj44Uxk-20" value="" style="rounded=0;whiteSpace=wrap;html=1;" parent="1" vertex="1">
          <mxGeometry x="50" y="-931" width="730" height="140" as="geometry" />
        </mxCell>
        <mxCell id="HNsuzrvbaMhc-dj44Uxk-21" value="includ cf:connection" style="text;html=1;align=center;verticalAlign=middle;whiteSpace=wrap;rounded=0;" parent="1" vertex="1">
          <mxGeometry x="154" y="-891" width="230" height="30" as="geometry" />
        </mxCell>
        <mxCell id="HNsuzrvbaMhc-dj44Uxk-22" value="" style="rounded=0;whiteSpace=wrap;html=1;" parent="1" vertex="1">
          <mxGeometry x="57" y="-34" width="720" height="337" as="geometry" />
        </mxCell>
        <mxCell id="HNsuzrvbaMhc-dj44Uxk-23" value="&lt;b&gt;Alt&lt;/b&gt;" style="text;html=1;align=center;verticalAlign=middle;whiteSpace=wrap;rounded=0;" parent="1" vertex="1">
          <mxGeometry x="57" y="-24" width="60" height="30" as="geometry" />
        </mxCell>
        <mxCell id="HNsuzrvbaMhc-dj44Uxk-29" value="" style="endArrow=classic;html=1;rounded=0;" parent="1" edge="1">
          <mxGeometry width="50" height="50" relative="1" as="geometry">
            <mxPoint x="417" y="36" as="sourcePoint" />
            <mxPoint x="672" y="36" as="targetPoint" />
          </mxGeometry>
        </mxCell>
        <mxCell id="HNsuzrvbaMhc-dj44Uxk-30" value="" style="endArrow=none;dashed=1;html=1;rounded=0;startArrow=classic;startFill=1;" parent="1" edge="1">
          <mxGeometry width="50" height="50" relative="1" as="geometry">
            <mxPoint x="417" y="86" as="sourcePoint" />
            <mxPoint x="667" y="86" as="targetPoint" />
          </mxGeometry>
        </mxCell>
        <mxCell id="HNsuzrvbaMhc-dj44Uxk-31" value="" style="endArrow=none;dashed=1;html=1;rounded=0;entryX=1.004;entryY=0.611;entryDx=0;entryDy=0;entryPerimeter=0;" parent="1" edge="1">
          <mxGeometry width="50" height="50" relative="1" as="geometry">
            <mxPoint x="57" y="147" as="sourcePoint" />
            <mxPoint x="780" y="146" as="targetPoint" />
          </mxGeometry>
        </mxCell>
        <mxCell id="HNsuzrvbaMhc-dj44Uxk-32" value="" style="endArrow=classic;html=1;rounded=0;" parent="1" edge="1">
          <mxGeometry width="50" height="50" relative="1" as="geometry">
            <mxPoint x="124.25" y="206" as="sourcePoint" />
            <mxPoint x="399.75" y="206" as="targetPoint" />
          </mxGeometry>
        </mxCell>
        <mxCell id="HNsuzrvbaMhc-dj44Uxk-33" value="&lt;span style=&quot;font-size: 13px;&quot;&gt;demande de suppression d&#39; un utilisateur&lt;/span&gt;" style="edgeLabel;html=1;align=center;verticalAlign=middle;resizable=0;points=[];" parent="HNsuzrvbaMhc-dj44Uxk-32" vertex="1" connectable="0">
          <mxGeometry x="-0.103" y="3" relative="1" as="geometry">
            <mxPoint x="15" y="-17" as="offset" />
          </mxGeometry>
        </mxCell>
        <mxCell id="HNsuzrvbaMhc-dj44Uxk-34" value="&lt;span style=&quot;font-size: 13px;&quot;&gt;suppression&lt;/span&gt;" style="edgeLabel;html=1;align=center;verticalAlign=middle;resizable=0;points=[];" parent="HNsuzrvbaMhc-dj44Uxk-32" vertex="1" connectable="0">
          <mxGeometry x="-0.103" y="3" relative="1" as="geometry">
            <mxPoint x="302" y="3" as="offset" />
          </mxGeometry>
        </mxCell>
        <mxCell id="HNsuzrvbaMhc-dj44Uxk-35" value="&lt;span style=&quot;font-size: 13px;&quot;&gt;echec de la suppression&lt;/span&gt;" style="edgeLabel;html=1;align=center;verticalAlign=middle;resizable=0;points=[];" parent="HNsuzrvbaMhc-dj44Uxk-32" vertex="1" connectable="0">
          <mxGeometry x="-0.103" y="3" relative="1" as="geometry">
            <mxPoint x="296" y="49" as="offset" />
          </mxGeometry>
        </mxCell>
        <mxCell id="HNsuzrvbaMhc-dj44Uxk-36" value="" style="endArrow=none;dashed=1;html=1;rounded=0;startArrow=classic;startFill=1;" parent="1" edge="1">
          <mxGeometry width="50" height="50" relative="1" as="geometry">
            <mxPoint x="124.25" y="285" as="sourcePoint" />
            <mxPoint x="399.75" y="285" as="targetPoint" />
          </mxGeometry>
        </mxCell>
        <mxCell id="HNsuzrvbaMhc-dj44Uxk-37" value="" style="endArrow=none;dashed=1;html=1;rounded=0;startArrow=classic;startFill=1;" parent="1" edge="1">
          <mxGeometry width="50" height="50" relative="1" as="geometry">
            <mxPoint x="417" y="266" as="sourcePoint" />
            <mxPoint x="667" y="266" as="targetPoint" />
          </mxGeometry>
        </mxCell>
        <mxCell id="HNsuzrvbaMhc-dj44Uxk-38" value="&lt;b&gt;else&lt;/b&gt;" style="text;html=1;align=center;verticalAlign=middle;whiteSpace=wrap;rounded=0;" parent="1" vertex="1">
          <mxGeometry x="57" y="146" width="60" height="30" as="geometry" />
        </mxCell>
        <mxCell id="HNsuzrvbaMhc-dj44Uxk-44" value="&lt;font style=&quot;font-size: 15px;&quot;&gt;:Bdd&lt;/font&gt;" style="shape=umlLifeline;perimeter=lifelinePerimeter;whiteSpace=wrap;html=1;container=0;dropTarget=0;collapsible=0;recursiveResize=0;outlineConnect=0;portConstraint=eastwest;newEdgeStyle={&quot;edgeStyle&quot;:&quot;elbowEdgeStyle&quot;,&quot;elbow&quot;:&quot;vertical&quot;,&quot;curved&quot;:0,&quot;rounded&quot;:0};" parent="1" vertex="1">
          <mxGeometry x="634" y="-1010" width="100" height="1340" as="geometry" />
        </mxCell>
        <mxCell id="HNsuzrvbaMhc-dj44Uxk-47" value="" style="endArrow=classic;html=1;rounded=0;" parent="1" edge="1">
          <mxGeometry width="50" height="50" relative="1" as="geometry">
            <mxPoint x="425" y="-182" as="sourcePoint" />
            <mxPoint x="680" y="-182" as="targetPoint" />
            <Array as="points">
              <mxPoint x="510" y="-182" />
            </Array>
          </mxGeometry>
        </mxCell>
        <mxCell id="HNsuzrvbaMhc-dj44Uxk-48" value="" style="endArrow=classic;html=1;rounded=0;" parent="1" edge="1">
          <mxGeometry width="50" height="50" relative="1" as="geometry">
            <mxPoint x="418" y="233" as="sourcePoint" />
            <mxPoint x="673" y="233" as="targetPoint" />
            <Array as="points">
              <mxPoint x="503" y="233" />
            </Array>
          </mxGeometry>
        </mxCell>
        <mxCell id="J4y-gnYXWAkhFkJmIQpk-16" value="" style="endArrow=classic;html=1;rounded=0;" edge="1" parent="1">
          <mxGeometry width="50" height="50" relative="1" as="geometry">
            <mxPoint x="134.25" y="26" as="sourcePoint" />
            <mxPoint x="409.75" y="26" as="targetPoint" />
          </mxGeometry>
        </mxCell>
        <mxCell id="J4y-gnYXWAkhFkJmIQpk-17" value="&lt;span style=&quot;font-size: 13px;&quot;&gt;demande de suppression d&#39; un utilisateur&lt;/span&gt;" style="edgeLabel;html=1;align=center;verticalAlign=middle;resizable=0;points=[];" vertex="1" connectable="0" parent="J4y-gnYXWAkhFkJmIQpk-16">
          <mxGeometry x="-0.103" y="3" relative="1" as="geometry">
            <mxPoint x="5" y="-20" as="offset" />
          </mxGeometry>
        </mxCell>
        <mxCell id="J4y-gnYXWAkhFkJmIQpk-19" value="&lt;span style=&quot;font-size: 13px;&quot;&gt;suppression effectué&lt;/span&gt;" style="edgeLabel;html=1;align=center;verticalAlign=middle;resizable=0;points=[];" vertex="1" connectable="0" parent="J4y-gnYXWAkhFkJmIQpk-16">
          <mxGeometry x="-0.103" y="3" relative="1" as="geometry">
            <mxPoint x="296" y="49" as="offset" />
          </mxGeometry>
        </mxCell>
        <mxCell id="J4y-gnYXWAkhFkJmIQpk-20" value="&lt;span style=&quot;font-size: 13px;&quot;&gt;message d&#39;erreur&lt;/span&gt;" style="edgeLabel;html=1;align=center;verticalAlign=middle;resizable=0;points=[];" vertex="1" connectable="0" parent="J4y-gnYXWAkhFkJmIQpk-16">
          <mxGeometry x="-0.103" y="3" relative="1" as="geometry">
            <mxPoint x="2" y="245" as="offset" />
          </mxGeometry>
        </mxCell>
        <mxCell id="J4y-gnYXWAkhFkJmIQpk-30" value="&lt;span style=&quot;font-size: 13px;&quot;&gt;mise à jour&lt;/span&gt;" style="edgeLabel;html=1;align=center;verticalAlign=middle;resizable=0;points=[];" vertex="1" connectable="0" parent="1">
          <mxGeometry x="540.25" y="18" as="geometry">
            <mxPoint y="6" as="offset" />
          </mxGeometry>
        </mxCell>
        <mxCell id="J4y-gnYXWAkhFkJmIQpk-51" value="" style="rounded=0;whiteSpace=wrap;html=1;" vertex="1" parent="1">
          <mxGeometry x="52.5" y="-760" width="720" height="337" as="geometry" />
        </mxCell>
        <mxCell id="J4y-gnYXWAkhFkJmIQpk-52" value="&lt;b&gt;Alt&lt;/b&gt;" style="text;html=1;align=center;verticalAlign=middle;whiteSpace=wrap;rounded=0;" vertex="1" parent="1">
          <mxGeometry x="58.5" y="-750" width="60" height="30" as="geometry" />
        </mxCell>
        <mxCell id="J4y-gnYXWAkhFkJmIQpk-53" value="" style="endArrow=none;dashed=1;html=1;rounded=0;entryX=1.004;entryY=0.611;entryDx=0;entryDy=0;entryPerimeter=0;" edge="1" parent="1">
          <mxGeometry width="50" height="50" relative="1" as="geometry">
            <mxPoint x="50" y="-569" as="sourcePoint" />
            <mxPoint x="773" y="-570" as="targetPoint" />
          </mxGeometry>
        </mxCell>
        <mxCell id="J4y-gnYXWAkhFkJmIQpk-54" value="" style="endArrow=classic;html=1;rounded=0;" edge="1" parent="1">
          <mxGeometry width="50" height="50" relative="1" as="geometry">
            <mxPoint x="125.75" y="-700" as="sourcePoint" />
            <mxPoint x="401.25" y="-700" as="targetPoint" />
          </mxGeometry>
        </mxCell>
        <mxCell id="J4y-gnYXWAkhFkJmIQpk-55" value="&lt;span style=&quot;font-size: 13px;&quot;&gt;demande de d&#39;ajout d&#39; un utilisateur&lt;/span&gt;" style="edgeLabel;html=1;align=center;verticalAlign=middle;resizable=0;points=[];" vertex="1" connectable="0" parent="J4y-gnYXWAkhFkJmIQpk-54">
          <mxGeometry x="-0.103" y="3" relative="1" as="geometry">
            <mxPoint x="5" y="-20" as="offset" />
          </mxGeometry>
        </mxCell>
        <mxCell id="J4y-gnYXWAkhFkJmIQpk-56" value="&lt;span style=&quot;font-size: 13px;&quot;&gt;ajout effectué&lt;/span&gt;" style="edgeLabel;html=1;align=center;verticalAlign=middle;resizable=0;points=[];" vertex="1" connectable="0" parent="J4y-gnYXWAkhFkJmIQpk-54">
          <mxGeometry x="-0.103" y="3" relative="1" as="geometry">
            <mxPoint x="296" y="49" as="offset" />
          </mxGeometry>
        </mxCell>
        <mxCell id="J4y-gnYXWAkhFkJmIQpk-57" value="&lt;span style=&quot;font-size: 13px;&quot;&gt;message d&#39;erreur&lt;/span&gt;" style="edgeLabel;html=1;align=center;verticalAlign=middle;resizable=0;points=[];" vertex="1" connectable="0" parent="J4y-gnYXWAkhFkJmIQpk-54">
          <mxGeometry x="-0.103" y="3" relative="1" as="geometry">
            <mxPoint x="6" y="243" as="offset" />
          </mxGeometry>
        </mxCell>
        <mxCell id="J4y-gnYXWAkhFkJmIQpk-58" value="&lt;span style=&quot;font-size: 13px;&quot;&gt;demande d&#39;ajout d&#39; un utilisateur&lt;/span&gt;" style="edgeLabel;html=1;align=center;verticalAlign=middle;resizable=0;points=[];" vertex="1" connectable="0" parent="J4y-gnYXWAkhFkJmIQpk-54">
          <mxGeometry x="-0.103" y="3" relative="1" as="geometry">
            <mxPoint x="15" y="163" as="offset" />
          </mxGeometry>
        </mxCell>
        <mxCell id="J4y-gnYXWAkhFkJmIQpk-59" value="&lt;span style=&quot;font-size: 13px;&quot;&gt;echec de l&#39;ajout&lt;/span&gt;" style="edgeLabel;html=1;align=center;verticalAlign=middle;resizable=0;points=[];" vertex="1" connectable="0" parent="J4y-gnYXWAkhFkJmIQpk-54">
          <mxGeometry x="-0.103" y="3" relative="1" as="geometry">
            <mxPoint x="295" y="223" as="offset" />
          </mxGeometry>
        </mxCell>
        <mxCell id="J4y-gnYXWAkhFkJmIQpk-60" value="" style="endArrow=classic;html=1;rounded=0;" edge="1" parent="1">
          <mxGeometry width="50" height="50" relative="1" as="geometry">
            <mxPoint x="418.5" y="-680" as="sourcePoint" />
            <mxPoint x="673.5" y="-680" as="targetPoint" />
          </mxGeometry>
        </mxCell>
        <mxCell id="J4y-gnYXWAkhFkJmIQpk-61" value="" style="endArrow=none;dashed=1;html=1;rounded=0;startArrow=classic;startFill=1;" edge="1" parent="1">
          <mxGeometry width="50" height="50" relative="1" as="geometry">
            <mxPoint x="419.5" y="-630" as="sourcePoint" />
            <mxPoint x="669.5" y="-630" as="targetPoint" />
          </mxGeometry>
        </mxCell>
        <mxCell id="J4y-gnYXWAkhFkJmIQpk-62" value="" style="endArrow=none;dashed=1;html=1;rounded=0;startArrow=classic;startFill=1;" edge="1" parent="1">
          <mxGeometry width="50" height="50" relative="1" as="geometry">
            <mxPoint x="128.75" y="-440" as="sourcePoint" />
            <mxPoint x="404.25" y="-440" as="targetPoint" />
          </mxGeometry>
        </mxCell>
        <mxCell id="J4y-gnYXWAkhFkJmIQpk-63" value="&lt;span style=&quot;font-size: 13px;&quot;&gt;ajout&lt;/span&gt;" style="edgeLabel;html=1;align=center;verticalAlign=middle;resizable=0;points=[];" vertex="1" connectable="0" parent="1">
          <mxGeometry x="534.75" y="-710" as="geometry">
            <mxPoint y="6" as="offset" />
          </mxGeometry>
        </mxCell>
        <mxCell id="J4y-gnYXWAkhFkJmIQpk-64" value="&lt;b&gt;else&lt;/b&gt;" style="text;html=1;align=center;verticalAlign=middle;whiteSpace=wrap;rounded=0;" vertex="1" parent="1">
          <mxGeometry x="58.5" y="-570" width="60" height="30" as="geometry" />
        </mxCell>
        <mxCell id="J4y-gnYXWAkhFkJmIQpk-65" value="" style="endArrow=classic;html=1;rounded=0;" edge="1" parent="1">
          <mxGeometry width="50" height="50" relative="1" as="geometry">
            <mxPoint x="125.75" y="-520" as="sourcePoint" />
            <mxPoint x="401.25" y="-520" as="targetPoint" />
          </mxGeometry>
        </mxCell>
        <mxCell id="J4y-gnYXWAkhFkJmIQpk-66" value="" style="endArrow=none;dashed=1;html=1;rounded=0;startArrow=classic;startFill=1;" edge="1" parent="1">
          <mxGeometry width="50" height="50" relative="1" as="geometry">
            <mxPoint x="419.5" y="-460" as="sourcePoint" />
            <mxPoint x="669.5" y="-460" as="targetPoint" />
          </mxGeometry>
        </mxCell>
        <mxCell id="J4y-gnYXWAkhFkJmIQpk-67" value="" style="endArrow=classic;html=1;rounded=0;" edge="1" parent="1">
          <mxGeometry width="50" height="50" relative="1" as="geometry">
            <mxPoint x="418.5" y="-510" as="sourcePoint" />
            <mxPoint x="673.5" y="-510" as="targetPoint" />
          </mxGeometry>
        </mxCell>
        <mxCell id="J4y-gnYXWAkhFkJmIQpk-68" value="&lt;span style=&quot;font-size: 13px;&quot;&gt;ajout&lt;/span&gt;" style="edgeLabel;html=1;align=center;verticalAlign=middle;resizable=0;points=[];" vertex="1" connectable="0" parent="1">
          <mxGeometry x="534.75" y="-530" as="geometry">
            <mxPoint y="6" as="offset" />
          </mxGeometry>
        </mxCell>
        <mxCell id="J4y-gnYXWAkhFkJmIQpk-69" value="&lt;font style=&quot;font-size: 15px;&quot;&gt;:admin&lt;/font&gt;" style="shape=umlLifeline;perimeter=lifelinePerimeter;whiteSpace=wrap;html=1;container=0;dropTarget=0;collapsible=0;recursiveResize=0;outlineConnect=0;portConstraint=eastwest;newEdgeStyle={&quot;edgeStyle&quot;:&quot;elbowEdgeStyle&quot;,&quot;elbow&quot;:&quot;vertical&quot;,&quot;curved&quot;:0,&quot;rounded&quot;:0};" vertex="1" parent="1">
          <mxGeometry x="64" y="-1011" width="120" height="1341" as="geometry" />
        </mxCell>
        <mxCell id="J4y-gnYXWAkhFkJmIQpk-70" value="" style="html=1;points=[];perimeter=orthogonalPerimeter;outlineConnect=0;targetShapes=umlLifeline;portConstraint=eastwest;newEdgeStyle={&quot;edgeStyle&quot;:&quot;elbowEdgeStyle&quot;,&quot;elbow&quot;:&quot;vertical&quot;,&quot;curved&quot;:0,&quot;rounded&quot;:0};" vertex="1" parent="J4y-gnYXWAkhFkJmIQpk-69">
          <mxGeometry x="55" y="60" width="10" height="1270" as="geometry" />
        </mxCell>
        <mxCell id="J4y-gnYXWAkhFkJmIQpk-71" value="&lt;font style=&quot;font-size: 15px;&quot;&gt;:system&lt;/font&gt;" style="shape=umlLifeline;perimeter=lifelinePerimeter;whiteSpace=wrap;html=1;container=0;dropTarget=0;collapsible=0;recursiveResize=0;outlineConnect=0;portConstraint=eastwest;newEdgeStyle={&quot;edgeStyle&quot;:&quot;elbowEdgeStyle&quot;,&quot;elbow&quot;:&quot;vertical&quot;,&quot;curved&quot;:0,&quot;rounded&quot;:0};" vertex="1" parent="1">
          <mxGeometry x="347" y="-1010" width="135" height="1340" as="geometry" />
        </mxCell>
        <mxCell id="J4y-gnYXWAkhFkJmIQpk-72" value="" style="html=1;points=[];perimeter=orthogonalPerimeter;outlineConnect=0;targetShapes=umlLifeline;portConstraint=eastwest;newEdgeStyle={&quot;edgeStyle&quot;:&quot;elbowEdgeStyle&quot;,&quot;elbow&quot;:&quot;vertical&quot;,&quot;curved&quot;:0,&quot;rounded&quot;:0};" vertex="1" parent="J4y-gnYXWAkhFkJmIQpk-71">
          <mxGeometry x="62.5" y="60" width="10" height="1270" as="geometry" />
        </mxCell>
        <mxCell id="J4y-gnYXWAkhFkJmIQpk-73" value="&lt;span style=&quot;color: rgba(0, 0, 0, 0); font-family: monospace; font-size: 0px; text-align: start;&quot;&gt;%3CmxGraphModel%3E%3Croot%3E%3CmxCell%20id%3D%220%22%2F%3E%3CmxCell%20id%3D%221%22%20parent%3D%220%22%2F%3E%3CmxCell%20id%3D%222%22%20value%3D%22%26lt%3Bfont%20style%3D%26quot%3Bfont-size%3A%2015px%3B%26quot%3B%26gt%3B%3Asystem%26lt%3B%2Ffont%26gt%3B%22%20style%3D%22shape%3DumlLifeline%3Bperimeter%3DlifelinePerimeter%3BwhiteSpace%3Dwrap%3Bhtml%3D1%3Bcontainer%3D0%3BdropTarget%3D0%3Bcollapsible%3D0%3BrecursiveResize%3D0%3BoutlineConnect%3D0%3BportConstraint%3Deastwest%3BnewEdgeStyle%3D%7B%26quot%3BedgeStyle%26quot%3B%3A%26quot%3BelbowEdgeStyle%26quot%3B%2C%26quot%3Belbow%26quot%3B%3A%26quot%3Bvertical%26quot%3B%2C%26quot%3Bcurved%26quot%3B%3A0%2C%26quot%3Brounded%26quot%3B%3A0%7D%3B%22%20vertex%3D%221%22%20parent%3D%221%22%3E%3CmxGeometry%20x%3D%22347%22%20y%3D%22-1010%22%20width%3D%22135%22%20height%3D%221460%22%20as%3D%22geometry%22%2F%3E%3C%2FmxCell%3E%3CmxCell%20id%3D%223%22%20value%3D%22%22%20style%3D%22html%3D1%3Bpoints%3D%5B%5D%3Bperimeter%3DorthogonalPerimeter%3BoutlineConnect%3D0%3BtargetShapes%3DumlLifeline%3BportConstraint%3Deastwest%3BnewEdgeStyle%3D%7B%26quot%3BedgeStyle%26quot%3B%3A%26quot%3BelbowEdgeStyle%26quot%3B%2C%26quot%3Belbow%26quot%3B%3A%26quot%3Bvertical%26quot%3B%2C%26quot%3Bcurved%26quot%3B%3A0%2C%26quot%3Brounded%26quot%3B%3A0%7D%3B%22%20vertex%3D%221%22%20parent%3D%222%22%3E%3CmxGeometry%20x%3D%2262.5%22%20y%3D%2260%22%20width%3D%2210%22%20height%3D%22910%22%20as%3D%22geometry%22%2F%3E%3C%2FmxCell%3E%3C%2Froot%3E%3C%2FmxGraphModel%3E&lt;/span&gt;" style="html=1;points=[];perimeter=orthogonalPerimeter;outlineConnect=0;targetShapes=umlLifeline;portConstraint=eastwest;newEdgeStyle={&quot;edgeStyle&quot;:&quot;elbowEdgeStyle&quot;,&quot;elbow&quot;:&quot;vertical&quot;,&quot;curved&quot;:0,&quot;rounded&quot;:0};" vertex="1" parent="1">
          <mxGeometry x="679" y="-950" width="10" height="1270" as="geometry" />
        </mxCell>
      </root>
    </mxGraphModel>
  </diagram>
</mxfile>
